<mxfile host="app.diagrams.net" modified="2024-03-11T19:39:06.270Z" agent="Mozilla/5.0 (Windows NT 10.0; Win64; x64) AppleWebKit/537.36 (KHTML, like Gecko) Chrome/122.0.0.0 Safari/537.36" version="24.0.1" etag="SemyhfG3uepgRBBZTYBm" type="github">
  <diagram name="Page-1" id="AtEdOX0EG5026ZQV5oRz">
    <mxGraphModel>
      <root>
        <mxCell id="0" />
        <mxCell id="1" parent="0" />
      </root>
    </mxGraphModel>
  </diagram>
</mxfile>
